# xmcd CD database file
# Copyright (C) 1993-1998 Ti Kan
# 
# Track frame offsets:
#     183
#     25515
#     38498
#     54468
#     77725
#     92748
#     113620
#     133840
#     153230
#     175255
#     196318
#     218050
#     243510
# 
# Disc length: 3460 seconds
# 
# Revision: 1
# Processed by: cddbd v1.4b41PL1 Copyright (c) Steve Scherf et al.
# Submitted via: DiscPlay 4.0.4
# 
DISCID=9e0d820d
DTITLE=Latimore - Sweet Vibrations * The Best Of Latimore
DYEAR=1900
DGENRE=
TTITLE0=(They Call It) Stormy Monday
TTITLE1=Ain't Nothing You Can Do
TTITLE2=Snap Your Fingers
TTITLE3=Let's Straighten It Out
TTITLE4=Keep The Home Fires Burnin'
TTITLE5=There's A Red- Neck In The Soul Band
TTITLE6=Qualified Man
TTITLE7=It Ain't Where You Been
TTITLE8=Something 'Bout 'Cha
TTITLE9=Sweet Vibrations
TTITLE10=I Get Lifted
TTITLE11=Dig A Little Deeper
TTITLE12=Long Distance Love
EXTD=
EXTT0=
EXTT1=
EXTT2=
EXTT3=
EXTT4=
EXTT5=
EXTT6=
EXTT7=
EXTT8=
EXTT9=
EXTT10=
EXTT11=
EXTT12=
PLAYORDER=
